<?xml version="1.0" standalone="no"?>
<!DOCTYPE svg PUBLIC "-//W3C//DTD SVG 20010904//EN"
 "http://www.w3.org/TR/2001/REC-SVG-20010904/DTD/svg10.dtd">
<svg version="1.0" xmlns="http://www.w3.org/2000/svg"
 width="512.000000pt" height="512.000000pt" viewBox="0 0 512.000000 512.000000"
 preserveAspectRatio="xMidYMid meet">

<g transform="translate(0.000000,512.000000) scale(0.100000,-0.100000)"
fill="#000000" stroke="none">
<path d="M2320 4760 l0 -280 -149 0 -150 0 180 -314 c125 -218 191 -325 218
-349 84 -75 202 -75 282 1 26 24 101 145 218 350 l180 312 -150 0 -149 0 0
280 0 280 -80 0 -80 0 0 -360 0 -359 89 -3 90 -3 -108 -189 c-60 -104 -116
-193 -125 -198 -43 -24 -61 -4 -175 194 l-110 193 90 3 89 3 0 359 0 360 -80
0 -80 0 0 -280z"/>
<path d="M1005 4228 c-27 -5 -86 -27 -131 -48 -152 -73 -274 -232 -303 -394
-7 -36 -11 -215 -11 -443 l0 -383 -240 0 -240 0 0 -80 0 -80 240 0 240 0 0
-240 0 -240 -240 0 -240 0 0 -80 0 -80 240 0 240 0 0 -383 c0 -228 4 -407 11
-443 17 -95 78 -210 149 -282 34 -34 83 -74 107 -89 115 -67 269 -98 360 -72
62 17 143 96 161 155 17 59 17 2968 0 3026 -17 59 -88 133 -145 152 -51 17
-120 19 -198 4z m148 -159 c14 -6 30 -22 36 -36 16 -35 16 -2912 0 -2947 -18
-39 -60 -51 -130 -38 -124 23 -238 102 -288 200 -52 103 -51 69 -51 1309 0
815 3 1168 11 1205 32 149 146 267 294 304 64 16 98 17 128 3z"/>
<path d="M880 3840 l0 -80 80 0 80 0 0 80 0 80 -80 0 -80 0 0 -80z"/>
<path d="M880 3520 l0 -80 80 0 80 0 0 80 0 80 -80 0 -80 0 0 -80z"/>
<path d="M880 3200 l0 -80 80 0 80 0 0 80 0 80 -80 0 -80 0 0 -80z"/>
<path d="M3920 4227 c-49 -16 -133 -102 -148 -153 -17 -60 -17 -2968 0 -3028
8 -26 31 -60 63 -92 62 -62 115 -80 215 -70 221 20 400 162 482 383 21 56 22
75 26 476 l3 417 240 0 239 0 0 80 0 80 -240 0 -240 0 0 240 0 240 240 0 240
0 0 80 0 80 -239 0 -240 0 -3 418 -3 417 -26 66 c-38 98 -71 149 -141 219
-124 123 -335 189 -468 147z m225 -178 c103 -38 182 -118 228 -230 l22 -54 3
-1175 c2 -785 -1 -1191 -8 -1225 -35 -166 -158 -285 -329 -317 -70 -13 -112
-1 -130 38 -16 35 -16 2912 0 2948 6 13 21 29 33 35 28 15 113 5 181 -20z"/>
<path d="M4080 2000 l0 -80 80 0 80 0 0 80 0 80 -80 0 -80 0 0 -80z"/>
<path d="M4080 1680 l0 -80 80 0 80 0 0 80 0 80 -80 0 -80 0 0 -80z"/>
<path d="M4080 1360 l0 -80 80 0 80 0 0 80 0 80 -80 0 -80 0 0 -80z"/>
<path d="M1680 3587 c-49 -16 -133 -102 -148 -153 -17 -59 -17 -1689 0 -1748
16 -55 99 -138 154 -154 59 -17 1689 -17 1748 0 55 16 138 99 154 154 17 59
17 1689 0 1746 -6 22 -31 62 -55 88 -76 85 -21 80 -977 79 -583 -1 -852 -4
-876 -12z m1713 -158 c42 -19 47 -47 47 -264 l0 -205 -880 0 -880 0 0 205 c0
214 5 245 44 263 31 15 1637 16 1669 1z m47 -869 l0 -240 -880 0 -880 0 0 240
0 240 880 0 880 0 0 -240z m0 -605 c0 -217 -5 -245 -47 -264 -34 -16 -1632
-16 -1666 0 -42 19 -47 47 -47 264 l0 205 880 0 880 0 0 -205z"/>
<path d="M1840 3200 l0 -80 80 0 80 0 0 80 0 80 -80 0 -80 0 0 -80z"/>
<path d="M2160 3200 l0 -80 80 0 80 0 0 80 0 80 -80 0 -80 0 0 -80z"/>
<path d="M2480 3200 l0 -80 80 0 80 0 0 80 0 80 -80 0 -80 0 0 -80z"/>
<path d="M2480 2560 l0 -80 80 0 80 0 0 80 0 80 -80 0 -80 0 0 -80z"/>
<path d="M2800 2560 l0 -80 80 0 80 0 0 80 0 80 -80 0 -80 0 0 -80z"/>
<path d="M3120 2560 l0 -80 80 0 80 0 0 80 0 80 -80 0 -80 0 0 -80z"/>
<path d="M1840 1920 l0 -80 80 0 80 0 0 80 0 80 -80 0 -80 0 0 -80z"/>
<path d="M2160 1920 l0 -80 80 0 80 0 0 80 0 80 -80 0 -80 0 0 -80z"/>
<path d="M2480 1920 l0 -80 80 0 80 0 0 80 0 80 -80 0 -80 0 0 -80z"/>
<path d="M2486 1345 c-21 -7 -54 -28 -73 -47 -19 -18 -113 -171 -213 -345
l-179 -313 150 0 149 0 0 -280 0 -280 80 0 80 0 0 360 0 359 -89 3 -90 3 108
189 c60 104 116 193 125 198 43 24 61 4 175 -194 l110 -193 -90 -3 -89 -3 0
-359 0 -360 80 0 80 0 0 280 0 280 149 0 150 0 -180 314 c-125 218 -191 325
-218 349 -61 55 -137 70 -215 42z"/>
</g>
</svg>
